# Blender v2.91.0 OBJ File: ''
# www.blender.org
mtllib something.mtl
o Cube
v 0.410000 0.530000 -0.060000
v 0.410000 -0.530000 -0.060000
v 0.410000 0.530000 0.060000
v 0.410000 -0.530000 0.060000
v -0.410000 0.530000 -0.060000
v -0.410000 -0.530000 -0.060000
v -0.410000 0.530000 0.060000
v -0.410000 -0.530000 0.060000
v 0.410000 -0.530000 -0.060000
v -0.410000 -0.530000 -0.060000
v 0.410000 0.530000 -0.060000
v -0.410000 0.530000 -0.060000
v 0.410000 0.520670 0.030873
v -0.410000 0.520670 0.030873
v 0.410000 0.545054 -0.086624
v -0.410000 0.545054 -0.086624
v 0.409652 0.788777 0.018770
v -0.410334 0.792382 0.015698
v 0.410334 0.864512 -0.074310
v -0.409652 0.868117 -0.077381
v 0.409928 0.992903 0.184862
v -0.410059 0.996509 0.181790
v 0.410609 1.068639 0.091782
v -0.409377 1.072244 0.088710
vt 0.625000 0.250000
vt 0.625000 0.000000
vt 0.625000 0.000000
vt 0.625000 0.250000
vt 0.375000 0.750000
vt 0.625000 0.750000
vt 0.625000 1.000000
vt 0.375000 1.000000
vt 0.375000 0.000000
vt 0.375000 0.250000
vt 0.125000 0.500000
vt 0.375000 0.500000
vt 0.125000 0.750000
vt 0.625000 0.500000
vt 0.125000 0.500000
vt 0.375000 0.500000
vt 0.375000 0.250000
vt 0.625000 0.250000
vt 0.625000 0.500000
vt 0.875000 0.500000
vt 0.875000 0.500000
vt 0.625000 0.000000
vt 0.625000 0.250000
vt 0.625000 0.500000
vt 0.625000 0.750000
vt 0.875000 0.500000
vt 0.625000 1.000000
vt 0.625000 0.500000
vt 0.875000 0.500000
vt 0.875000 0.500000
vt 0.625000 0.500000
vt 0.625000 0.750000
vt 0.625000 1.000000
vt 0.875000 0.750000
vt 0.625000 0.750000
vt 0.625000 0.000000
vt 0.625000 0.250000
vt 0.625000 1.000000
vn 0.0852 -0.9917 -0.0967
vn 0.0000 0.0000 1.0000
vn -1.0000 0.0000 0.0000
vn 0.0000 -1.0000 0.0000
vn 1.0000 0.0000 0.0000
vn 0.0000 0.0000 -1.0000
vn -1.0000 -0.0000 -0.0032
vn -0.0852 -0.9917 -0.0967
vn 0.0000 -0.8705 -0.4922
vn 0.0000 0.9523 -0.3051
vn 0.0057 0.6311 -0.7757
vn -0.0018 0.0505 0.9987
vn 0.0019 0.0335 -0.9994
vn 1.0000 0.0000 0.0032
vn 0.0010 0.7757 0.6311
vn 1.0000 -0.0044 0.0037
vn -1.0000 0.0044 -0.0037
vn -0.0057 -0.6311 0.7757
usemtl Material
s off
f 5/1/1 7/2/1 14/3/1 16/4/1
f 4/5/2 3/6/2 7/7/2 8/8/2
f 8/9/3 7/2/3 5/1/3 6/10/3
f 6/11/4 2/12/4 4/5/4 8/13/4
f 2/12/5 1/14/5 3/6/5 4/5/5
f 2/12/2 6/11/2 10/15/2 9/16/2
f 10/17/6 12/18/6 11/19/6 9/16/6
f 5/20/2 1/14/2 11/19/2 12/21/2
f 1/14/2 2/12/2 9/16/2 11/19/2
f 6/10/2 5/1/2 12/18/2 10/17/2
f 16/4/7 14/3/7 18/22/7 20/23/7
f 3/6/8 1/14/8 15/24/8 13/25/8
f 1/14/9 5/20/9 16/26/9 15/24/9
f 7/7/10 3/6/10 13/25/10 14/27/10
f 19/28/11 20/29/11 24/30/11 23/31/11
f 14/27/12 13/25/12 17/32/12 18/33/12
f 15/24/13 16/26/13 20/29/13 19/28/13
f 13/25/14 15/24/14 19/28/14 17/32/14
f 23/31/15 24/30/15 22/34/15 21/35/15
f 17/32/16 19/28/16 23/31/16 21/35/16
f 20/23/17 18/22/17 22/36/17 24/37/17
f 18/33/18 17/32/18 21/35/18 22/38/18
